<svg id="e79m3agXYb51" xmlns="http://www.w3.org/2000/svg" xmlns:xlink="http://www.w3.org/1999/xlink" viewBox="0 0 1920 1080" shape-rendering="geometricPrecision" text-rendering="geometricPrecision">
<style><![CDATA[
#e79m3agXYb511_tr {animation: e79m3agXYb511_tr__tr 3000ms linear 1 normal forwards}@keyframes e79m3agXYb511_tr__tr { 0% {transform: translate(983.967987px,539.896027px) rotate(0deg)} 10% {transform: translate(983.967987px,539.896027px) rotate(90deg)} 20% {transform: translate(983.967987px,539.896027px) rotate(180deg)} 30% {transform: translate(983.967987px,539.896027px) rotate(270deg)} 40% {transform: translate(983.967987px,539.896027px) rotate(360deg)} 50% {transform: translate(983.967987px,539.896027px) rotate(450deg)} 56.666667% {transform: translate(983.967987px,539.896027px) rotate(540deg)} 63.333333% {transform: translate(983.967987px,539.896027px) rotate(630deg)} 66.666667% {transform: translate(983.967987px,539.896027px) rotate(720deg)} 70% {transform: translate(983.967987px,539.896027px) rotate(810deg)} 73.333333% {transform: translate(983.967987px,539.896027px) rotate(900deg)} 76.666667% {transform: translate(983.967987px,539.896027px) rotate(1080deg)} 80% {transform: translate(983.967987px,539.896027px) rotate(1260deg)} 83.333333% {transform: translate(983.967987px,539.896027px) rotate(1350deg)} 86.666667% {transform: translate(983.967987px,539.896027px) rotate(1440deg)} 90% {transform: translate(983.967987px,539.896027px) rotate(1530deg)} 93.333333% {transform: translate(983.967987px,539.896027px) rotate(1620deg)} 96.666667% {transform: translate(983.967987px,539.896027px) rotate(1710deg)} 100% {transform: translate(983.967987px,539.896027px) rotate(1800deg)}}
]]></style>
<g><g><g><g transform="translate(.000001 0.000001)"><path d="M939.017488,969.697133l8.587711.856867l7.641769.76204l8.613604.538212l7.665071.479265l8.628276.218702l7.677155.194781l8.630003-.099954l7.679744-.089702l8.620508-.419463l7.671114-.373331l8.598931-.738974l7.650399-.65696l8.565271-1.055921l7.621054-.939735l8.518665-1.372013l7.580489-1.220801l8.460837-1.686397l7.528704-1.501014l8.391791-1.998218l7.466562-1.777808l8.31066-2.307477l7.394062-2.053748l8.217447-2.613318l7.311207-2.325417l8.113013-2.914887l7.218856-2.594523l7.99736-3.213894l7.115286-2.859358l7.870486-3.50692l7.003084-3.121629l7.73153-3.795675l6.880526-3.377921l7.583078-4.079304l6.747611-3.62994l7.423407-4.357808l6.606928-3.876835l7.254242-4.629476l6.455024-4.118603l7.073858-4.894311l6.29449-4.35439l6.884841-5.152311l6.126189-4.585053l6.684605-5.403477l5.949256-4.80888l6.476601-5.646954l5.762829-5.02502l6.258241-5.882741l5.569497-5.235179l6.032112-6.109986l5.367535-5.437649l5.79649-6.329543l5.158668-5.631576l5.553962-6.539701l4.942033-5.819523l5.303667-6.739609l4.719358-5.998927l5.04474-6.930974l4.488914-6.168933l4.779773-7.113795l4.25329-6.330397l4.507038-7.285509l4.011627-6.483318l4.229124-7.446973l3.76392-6.627695l3.944306-7.598185l3.511036-6.762676l3.655171-7.739145l3.252974-6.886549l3.359996-7.869l2.990595-7.003589l3.061368-7.987748l2.723901-7.109523l2.756698-8.095391l2.453755-7.20435l2.44944-8.191927l2.179293-7.290636l2.138729-8.276503l1.903106-7.366668l1.823702-8.349973l1.623465-7.431596l1.507813-8.412338l1.341236-7.487125l1.18847-8.461033l1.058144-7.531549.868265-8.500331.772463-7.564867.546334-8.52596.486781-7.588788.224402-8.540483.199373-7.601603-.098392-8.542191-.088035-7.603311-.421186-8.532795-.375443-7.595622-.743117-8.511437-.661124-7.576827-1.065049-8.477265-.946806-7.546927-1.383528-8.431986-1.232487-7.506775-1.701144-8.375602-1.513854-7.455516-2.017033-8.306404-1.79522-7.39486-2.328608-8.226099-2.073134-7.323954-2.637592-8.133834-2.348459-7.241086-2.943125-8.031317-2.621194-7.149676-3.244342-7.915986-2.888751-7.048013-3.541244-7.790404-3.152855-6.936099-3.83383-7.654569-3.412645-6.814788-4.119512-7.506774-3.668118-6.683225-4.400878-7.349583-3.91755-6.543119-4.67534-7.181284-4.161803-6.393616-4.94376-7.003589-4.400878-6.235569-5.204412-6.814788-4.633912-6.068126-5.457296-6.618297-4.86004-5.892994-5.704139-6.410701-5.079265-5.709318-5.942351-6.195417-5.291583-5.516245-6.171932-5.971589-5.496998-5.317192-6.392882-5.739218-5.693782-5.109596-6.606065-5.498304-5.881935-4.89602-6.80889-5.249702-6.064046-4.674755-7.002221-4.99341-6.236663-4.44751-7.186059-4.731139-6.399787-4.21343-7.359539-4.462033-6.555142-3.973371-7.523526-4.186092-6.70014-3.728186-7.676292-3.905026-6.836509-3.477874-7.818701-3.61798-6.963382-3.222437-7.94989-3.325808-7.079899-2.961874-8.06986-3.029364-7.186921-2.697894-8.178608-2.728649-7.284451-2.430496-8.276137-2.423662-7.370759-2.158828-8.362446-2.116113-7.447574-1.884596-8.435807-1.804291-7.514032-1.607801-.010357-.002563-8.498813-1.490762-7.568406-1.328443-8.548873-1.175523-7.614149-1.047378-8.587711-.857722-7.64781-.764602-8.613604-.539921-7.671976-.480973-8.628277-.220411-7.684922-.19649-8.630003.098245-7.687512.088848-8.620508.417755-7.678018.372476-8.598931.737265-7.65903.656961-8.564408,1.055066-7.628822.939735-8.519528,1.371159-7.587394,1.221655-8.4617,1.685543-7.536472,1.501013-8.39179,1.998219-7.47433,1.779516-8.309797,2.306623-7.402694,2.055457-8.216584,2.612463-7.319837,2.32798-8.113013,2.915742-7.225761,2.596232-7.99736,3.213893-7.123053,2.862775-7.869623,3.507775-7.009989,3.124192-7.732393,3.795675-6.886567,3.382192-7.583079,4.079305-6.754515,3.634211-7.423407,4.358662-6.61297,3.881106-7.253379,4.629477-6.461066,4.123728-7.073857,4.895166-6.300532,4.359516-6.883978,5.15402-6.131367,4.590178-6.684606,5.404331-5.953571,4.814007-6.475738,5.647807-5.767144,5.031-6.257378,5.88445-5.573813,5.240305-6.031249,6.111695-5.370987,5.443629-5.795626,6.330397-5.162121,5.63841-5.552236,6.540556-4.945486,5.825503-5.301941,6.742172-4.721946,6.004053-5.043015,6.932682-4.491502,6.175768-4.777184,7.114649-4.255017,6.337231-4.505312,7.286364-4.012489,6.490152-4.227398,7.448682-3.764784,6.633675-3.942579,7.599894-3.511036,6.768655-3.652582,7.74-3.252974,6.893384-3.357406,7.870708-2.990595,7.008715-3.057916,7.989457-2.723038,7.114649-2.754109,8.096244-2.452892,7.210331-2.445987,8.192781-2.178431,7.296616-2.134413,8.277357-1.901379,7.371795-1.821113,8.350827-1.620877,7.436722-1.50436,8.412337-1.338647,7.491397-1.185018,8.461887-1.055554,7.535821-.864813,8.499477-.769873,7.569993-.542019,8.52596-.483328,7.592205-.22095,8.540483-.195921,7.604165.102707,8.543046.091487,7.606728.424639,8.532795.378895,7.597331.747433,8.510582.66544,7.578536l1.067638,8.477265.951121,7.548635l1.387843,8.431987l1.23594,7.506774l1.705459,8.374748l1.51817,7.456371l2.020485,8.305549l1.798673,7.395715l2.332923,8.22439l2.077449,7.3231l2.641908,8.132979l2.351911,7.241086l2.94744,8.029609l2.623783,7.147967l3.248658,7.915132l2.892203,7.046304l3.544697,7.788695l3.156307,6.934391l3.837283,7.65286l3.415233,6.812225l4.123828,7.505066l3.670707,6.680662l4.404331,7.34702l3.920139,6.540556l4.678792,7.179576l4.164393,6.390198l4.946349,7.001026l4.403467,6.232152l5.207001,6.81308l4.635638,6.063854l5.460749,6.615735l4.860903,5.888721l5.707592,6.408139l5.080127,5.705046l5.94494,6.192854l5.291584,5.511974l6.175384,5.969026l5.496135,5.312066l6.396335,5.736655l5.692919,5.105325l6.60779,5.494887l5.881935,4.890894l6.811479,5.247138l6.06232,4.669629l7.004811,4.991702l6.234074,4.44153l7.187785,4.728576l6.39806,4.208304l7.362129,4.45947l6.55169,3.968245l7.525251,4.18353l6.697552,3.723059l7.678018,3.902464l6.833056,3.472748l7.819564,3.615417l6.959067,3.217311l7.951616,3.323245l7.075584,2.957603l8.070722,3.027655l7.182607,2.693623l8.180334,2.726086l7.278409,2.42537l8.277,2.421954l7.36558,2.154556l8.363309,2.11355l7.441532,1.881178l8.436671,1.802583l7.507127,1.604384l8.498814,1.489053l7.563227,1.325027l8.548872,1.173814l7.607245,1.04396.01122.000855" fill="none" stroke="#000" stroke-width="3" stroke-linejoin="round"/><path d="M926.468,1042.807l9.95,1.003l8.854.892l9.98.63l8.881.561l9.997.256l8.895.228l9.999-.117l8.898-.105l9.988-.491l8.888-.437l9.963-.865l8.864-.769l9.924-1.236l8.83-1.1l9.87-1.606l8.783-1.429l9.803-1.974l8.723-1.757l9.723-2.339l8.651-2.081l9.629-2.701l8.567-2.404l9.521-3.059l8.471-2.722l9.4-3.412l8.364-3.037l9.266-3.762l8.244-3.347l9.119-4.105l8.114-3.654l8.958-4.443l7.972-3.954l8.786-4.775l7.818-4.249l8.601-5.101l7.655-4.538l8.405-5.419l7.479-4.821l8.196-5.729l7.293-5.097l7.977-6.031l7.098-5.367l7.745-6.325l6.893-5.629l7.504-6.61l6.677-5.882l7.251-6.886l6.453-6.128l6.989-7.152l6.219-6.365l6.716-7.409l5.977-6.592l6.435-7.655l5.726-6.812l6.145-7.889l5.468-7.022l5.845-8.113l5.201-7.221l5.538-8.327l4.928-7.41l5.222-8.528l4.648-7.589l4.9-8.717l4.361-7.758l4.57-8.894l4.068-7.916l4.235-9.059l3.769-8.061l3.893-9.211l3.465-8.198l3.547-9.35l3.156-8.322l3.194-9.476l2.843-8.433l2.838-9.589l2.525-8.534l2.478-9.688l2.205-8.623l2.113-9.774l1.881-8.699l1.747-9.847l1.554-8.764l1.377-9.904l1.226-8.816l1.006-9.95.895-8.855.633-9.98.564-8.883.26-9.997.231-8.898-.114-9.999-.102-8.9-.488-9.988-.435-8.891-.861-9.963-.766-8.869-1.234-9.923-1.097-8.834-1.603-9.87-1.428-8.787-1.971-9.804-1.754-8.727-2.337-9.723-2.08-8.656-2.698-9.629-2.402-8.573-3.056-9.521-2.721-8.476-3.41-9.401-3.037-8.369-3.759-9.266-3.347-8.25-4.103-9.119-3.653-8.119-4.442-8.96-3.954-7.977-4.773-8.787-4.25-7.823-5.099-8.603-4.539-7.659-5.417-8.406-4.822-7.484-5.728-8.198-5.099-7.299-6.03-7.977-5.369-7.103-6.323-7.747-5.631-6.898-6.609-7.504-5.885-6.683-6.885-7.252-6.131-6.457-7.151-6.99-6.369-6.224-7.407-6.718-6.597-5.981-7.654-6.436-6.815-5.731-7.889-6.145-7.026-5.472-8.113-5.845-7.226-5.206-8.326-5.538-7.415-4.932-8.527-5.223-7.595-4.651-8.717-4.9-7.763-4.364-8.894-4.571-7.921-4.071-9.059-4.235-8.068-3.772-9.211-3.893-8.203-3.467-9.35-3.546-8.327-3.158-9.476-3.194-8.44-2.845-9.589-2.837-8.54-2.527-9.689-2.477-8.629-2.206-9.774-2.112-8.706-1.882-.012-.003-9.847-1.745-8.769-1.555-9.905-1.376-8.822-1.226-9.95-1.004-8.861-.895-9.98-.632-8.889-.563-9.997-.258-8.904-.23-9.999.115-8.907.104-9.988.489-8.896.436-9.963.863-8.874.769-9.923,1.235-8.839,1.1-9.871,1.605-8.791,1.43-9.804,1.973-8.732,1.757-9.723,2.339-8.66,2.083-9.628,2.7-8.577,2.406-9.52,3.058-8.481,2.725-9.4,3.413-8.372,3.039-9.266,3.762-8.253,3.351-9.118,4.106-8.122,3.657-8.959,4.443-7.979,3.959-8.786,4.775-7.826,4.254-8.601,5.102-7.662,4.543-8.404,5.419-7.486,4.827-8.196,5.73-7.3,5.103-7.976,6.033-7.104,5.373-7.745,6.326-6.898,5.635-7.503,6.611-6.682,5.889-7.25,6.888-6.458,6.134-6.988,7.154-6.223,6.372-6.715,7.41-5.981,6.6-6.433,7.656-5.73,6.819-6.143,7.892-5.471,7.028-5.843,8.115-5.204,7.229-5.535,8.328-4.93,7.418-5.22,8.529-4.649,7.597-4.898,8.719-4.362,7.765-4.568,8.896-4.068,7.923-4.232,9.06-3.769,8.069-3.89,9.213-3.465,8.204-3.543,9.352-3.155,8.328-3.191,9.477-2.842,8.44-2.834,9.59-2.524,8.541-2.473,9.689-2.203,8.629-2.11,9.775-1.878,8.705-1.743,9.847-1.551,8.769-1.373,9.905-1.223,8.821-1.002,9.949-.892,8.861-.628,9.98-.56,8.887-.256,9.997-.227,8.901.119,10l.106,8.904.492,9.988.439,8.893.866,9.962.771,8.871l1.237,9.923l1.102,8.836l1.608,9.87l1.432,8.787l1.976,9.803l1.759,8.728l2.341,9.722l2.084,8.657l2.703,9.627l2.407,8.572l3.061,9.52l2.725,8.476l3.415,9.399l3.04,8.367l3.764,9.265l3.351,8.248l4.107,9.117l3.657,8.117l4.446,8.958l3.957,7.974l4.778,8.785l4.253,7.82l5.103,8.6l4.542,7.656l5.421,8.404l4.825,7.48l5.731,8.195l5.102,7.295l6.033,7.975l5.371,7.098l6.327,7.744l5.632,6.893l6.613,7.501l5.886,6.678l6.888,7.249l6.131,6.452l7.155,6.987l6.368,6.218l7.411,6.715l6.596,5.976l7.656,6.432l6.815,5.725l7.892,6.142l7.024,5.466l8.116,5.843l7.223,5.199l8.328,5.535l7.413,4.926l8.53,5.22l7.591,4.645l8.719,4.897l7.76,4.358l8.896,4.568l7.917,4.065l9.06,4.232l8.063,3.766l9.213,3.89l8.198,3.462l9.351,3.544l8.322,3.153l9.478,3.191l8.433,2.839l9.59,2.835l8.534,2.522l9.69,2.474l8.622,2.202l9.775,2.11l8.698,1.878l9.847,1.743l8.763,1.551l9.905,1.374l8.814,1.222.013.001" fill="none" stroke="#000" stroke-width="3" stroke-linejoin="round"/></g><g id="e79m3agXYb511_tr" transform="translate(983.967987,539.896027) rotate(0)"><g transform="translate(-983.967987,-539.896027)"><path d="M1222.5,179.457l-9.699,2.436-2.845.715-9.348,3.552-9.348,3.551-9.348,3.552-8.868,3.37-8.988,4.382-8.989,4.383-8.988,4.383-8.989,4.382-4,1.95-8.644,5.027-8.645,5.028-8.645,5.027-8.644,5.027-7.79,4.53-.506.321-8.32,5.548-8.32,5.548-8.32,5.548-8.32,5.548-8.32,5.548-2.431,1.621-8.012,5.985-8.011,5.985-8.012,5.984-8.011,5.985-8.011,5.985-5.013,3.744-7.714,6.364-7.714,6.363-7.714,6.364-7.714,6.364-7.714,6.363-6.819,5.626-7.421,6.702-7.421,6.703-7.421,6.703-7.422,6.702-7.421,6.703-7.421,6.702-.453.409-7.127,7.015-7.127,7.014-7.127,7.015-7.127,7.014-7.127,7.015-7.127,7.015-1.086,1.069-6.825,7.309-6.824,7.31-6.825,7.309-6.824,7.31-6.824,7.309-6.825,7.309-1.065,1.141-6.505,7.595-6.505,7.596-6.505,7.595-6.505,7.595-6.505,7.595-6.504,7.595-.468.545-6.159,7.879-6.158,7.878-6.159,7.878-6.159,7.879-6.159,7.878-5.552,7.101-5.773,8.165-5.773,8.166-5.773,8.165-5.774,8.165-5.773,8.165-3.744,5.296-5.33,8.461-5.33,8.461-5.33,8.462-5.329,8.461-5.33,8.461-1.702,2.702-4.803,8.772-4.803,8.771-4.802,8.771-4.803,8.771-4.428,8.088-.265.506-4.153,9.097-4.152,9.097-4.152,9.097-4.152,9.098-1.976,4.329-3.317,9.434-3.316,9.434-3.317,9.434-3.246,9.234-2.057,9.133" fill="none" stroke="#000" stroke-width="3" stroke-linejoin="round"/><path d="M691.493,711.987l.209-.458l4.155-9.097l4.154-9.096l4.155-9.096l3.426-7.501l4.805-8.771l4.804-8.77l4.804-8.771l4.804-8.77l1.289-2.353l5.331-8.461l5.33-8.46l5.331-8.461l5.331-8.461l3.263-5.179l5.774-8.165l5.773-8.165l5.774-8.165l5.773-8.165l5.18-7.325l6.159-7.879l6.159-7.878l6.159-7.878l6.159-7.879l6.159-7.878.714-.914l6.505-7.596l6.505-7.595l6.504-7.596l6.505-7.595l6.505-7.595l1.715-2.004l6.824-7.31l6.824-7.31l6.824-7.31l6.823-7.31l6.824-7.31l2.3-2.464l7.126-7.015l7.126-7.015l7.127-7.016l7.126-7.015l7.126-7.016l2.382-2.344l7.42-6.704l7.42-6.704l7.42-6.703l7.42-6.704l7.421-6.704l1.895-1.713l7.713-6.365l7.712-6.365l7.713-6.365l7.712-6.365l7.713-6.365.792-.654l8.01-5.987l8.01-5.987l8.01-5.987l8.01-5.986l7.045-5.266l8.318-5.551l8.318-5.55l8.318-5.551l8.318-5.551l4.919-3.282l8.642-5.03l8.643-5.031l8.642-5.031l8.643-5.03l1.718-1l.401-.234" fill="none" stroke="#000" stroke-width="3" stroke-linejoin="round"/><path d="M1113.053,260.044l8.986-4.388l8.986-4.387l8.986-4.387l7.428-3.627l9.346-3.559l9.345-3.558l9.346-3.559l3.885-1.479l9.697-2.446l9.696-2.445l9.407-2.372l9.96-.894l9.96-.895l5.084-.457.227-.02" fill="none" stroke="#000" stroke-width="3" stroke-linejoin="round"/><path d="M1233.165,221.591l9.917,1.285l9.917,1.285l1.175.152l9.103,4.139l7.871,3.579l7.038,7.104l5.396,5.446l4.094,9.123l3.508,7.817.106.235" fill="none" stroke="#000" stroke-width="3" stroke-linejoin="round"/><path d="M1291.184,261.521l1.323,9.913l1.322,9.912.209,1.568-.782,9.969-.781,9.969-.44,5.604-2.284,9.736-2.285,9.735-2.27,9.674-3.371,9.414-3.372,9.415-3.371,9.414-1.425,3.979-.023.065" fill="none" stroke="#000" stroke-width="3" stroke-linejoin="round"/><path d="M747.169,900.335l9.663-2.572l3.379-.899l9.311-3.648l9.31-3.649l9.311-3.648l9.18-3.597.567-.276l8.954-4.452l8.954-4.453l8.954-4.453l8.954-4.452l4.131-2.055l8.614-5.079l8.614-5.079l8.615-5.079l8.614-5.079l7.749-4.569l8.294-5.588l8.293-5.587l8.294-5.587l8.293-5.587l8.294-5.587l2.333-1.572l7.989-6.015l7.989-6.015l7.989-6.014l7.989-6.015l7.989-6.015l4.767-3.589l7.695-6.386l7.695-6.387l7.696-6.386l7.695-6.386l7.695-6.387l6.451-5.354l7.406-6.72l7.406-6.72l7.406-6.719l7.406-6.72l7.406-6.719l7.416-6.729l7.115-7.027l7.115-7.027l7.115-7.027l7.115-7.027l7.115-7.027l7.115-7.027.585-.578l6.816-7.317l6.816-7.318l6.815-7.317l6.816-7.318l6.816-7.317l6.816-7.318.543-.583l6.5-7.599l6.5-7.6l6.5-7.599l6.5-7.599l6.501-7.599l6.459-7.552l6.159-7.879l6.158-7.879l6.159-7.878l6.158-7.879l6.159-7.879l5.089-6.51l5.778-8.162l5.779-8.162l5.778-8.161l5.778-8.162l5.778-8.161l3.358-4.743l5.342-8.453l5.342-8.454l5.342-8.453l5.342-8.454l5.342-8.453l1.406-2.225l4.825-8.759l4.825-8.759l4.824-8.759l4.825-8.759l4.247-7.709l4.189-9.08l4.189-9.081l4.189-9.08l4.189-9.08l1.851-4.014.175-.487l3.376-9.413l3.375-9.413l3.376-9.413l3.267-9.11l2.291-9.734l1.734-7.37" fill="none" stroke="#000" stroke-width="3" stroke-linejoin="round"/><path d="M1273.657,369.823l-4.186,9.081-4.186,9.082-4.187,9.081-3.362,7.294-4.823,8.76-4.824,8.76-4.823,8.76-4.823,8.76-1.126,2.044-5.341,8.454-5.341,8.454-5.342,8.454-5.341,8.455-3.024,4.787-5.778,8.162-5.778,8.161-5.778,8.162-5.778,8.162-4.868,6.877-6.159,7.878-6.158,7.879-6.159,7.879-6.158,7.878-6.159,7.879-.342.438-6.501,7.599-6.5,7.599-6.501,7.599-6.5,7.599-6.501,7.599-1.306,1.527-6.817,7.317-6.816,7.317-6.816,7.317-6.817,7.317-6.816,7.317-1.877,2.015-7.116,7.026-7.116,7.026-7.116,7.026-7.116,7.026-7.115,7.026-1.973,1.948-7.407,6.718-7.407,6.718-7.407,6.719-7.407,6.718-7.407,6.719-1.53,1.387-7.696,6.385-7.697,6.385-7.696,6.384-7.697,6.385-7.696,6.385-.496.412-7.991,6.012-7.99,6.013-7.991,6.012-7.991,6.013-6.823,5.134-8.296,5.585-8.295,5.584-8.295,5.584-8.296,5.585-4.807,3.236-8.617,5.076-8.616,5.075-8.616,5.076-8.616,5.075L855.976,818" fill="none" stroke="#000" stroke-width="3" stroke-linejoin="round"/><path d="M856.105,817.936l-.129.064-8.956,4.448-8.956,4.447-8.957,4.448-7.57,3.759-9.313,3.642-9.313,3.642-9.314,3.641-4.119,1.611-9.666,2.563-9.667,2.562-9.71,2.574-9.943,1.062-9.944,1.062-5.569.595" fill="none" stroke="#000" stroke-width="3" stroke-linejoin="round"/><path d="M735.329,858.093l-.35-.037-9.944-1.052-9.945-1.052-1.417-.15-9.225-3.859-8.191-3.426-7.27-6.866-5.621-5.309-4.348-9.005-3.729-7.722" fill="none" stroke="#000" stroke-width="3" stroke-linejoin="round"/><path d="M675.327,819.863l-.038-.248-1.516-9.884-1.517-9.884-.203-1.327.653-9.978.654-9.979.361-5.504l2.203-9.754l2.204-9.754l2.185-9.672l3.321-9.433l3.321-9.432l3.32-9.433l1.427-4.052" fill="none" stroke="#000" stroke-width="3" stroke-linejoin="round"/></g></g></g></g></g></svg>
