<?xml version="1.0" standalone="no"?>
<!DOCTYPE svg PUBLIC "-//W3C//DTD SVG 20010904//EN"
 "http://www.w3.org/TR/2001/REC-SVG-20010904/DTD/svg10.dtd">
<svg version="1.0" xmlns="http://www.w3.org/2000/svg"
 width="1424.000000pt" height="349.000000pt" viewBox="0 0 1424.000000 349.000000"
 preserveAspectRatio="xMidYMid meet">

<g transform="translate(0.000000,349.000000) scale(0.100000,-0.100000)"
fill="#000000" stroke="none">
<path d="M0 1745 l0 -1745 7120 0 7120 0 0 1745 0 1745 -7120 0 -7120 0 0
-1745z m14230 0 l0 -1735 -7110 0 -7110 0 0 1735 0 1735 7110 0 7110 0 0
-1735z"/>
<path d="M5392 3349 c-354 -46 -653 -263 -802 -582 -183 -390 -104 -865 194
-1163 394 -393 1059 -391 1456 6 350 350 399 906 117 1325 -199 296 -589 463
-965 414z m375 -138 c89 -26 167 -60 246 -108 67 -41 69 -37 -38 -68 -244 -71
-630 -373 -888 -695 -158 -198 -257 -379 -292 -535 l-7 -30 -19 25 c-34 44
-107 202 -131 285 -19 68 -23 103 -23 240 0 137 4 172 23 239 98 341 352 583
692 657 115 25 331 20 437 -10z m396 -228 c40 -45 26 -137 -43 -281 -151 -316
-546 -731 -882 -925 -170 -98 -320 -136 -367 -93 -69 62 25 306 218 563 287
384 774 749 1002 752 41 1 60 -4 72 -16z m218 -363 c28 -84 32 -112 37 -236 3
-108 1 -160 -13 -225 -73 -361 -349 -639 -707 -713 -151 -31 -354 -18 -498 32
-82 29 -178 79 -160 85 228 72 456 222 712 466 261 249 457 536 535 781 7 22
57 -79 94 -190z"/>
<path d="M2130 3323 c0 -10 -381 -1851 -395 -1911 -5 -22 -4 -23 52 -20 l58 3
160 772 c88 424 162 774 165 776 3 3 151 -357 329 -799 179 -443 328 -801 332
-797 4 5 152 367 330 807 230 568 325 793 331 780 6 -17 318 -1523 318 -1538
0 -13 110 -6 110 7 1 22 -395 1917 -400 1917 -3 0 -158 -377 -344 -837 -186
-461 -342 -841 -345 -845 -4 -4 -157 365 -340 820 -329 816 -360 889 -361 865z"/>
<path d="M145 3268 c-3 -7 -4 -431 -3 -943 l3 -930 447 -3 448 -2 0 55 0 55
-387 2 -388 3 0 430 0 430 378 3 377 2 0 55 0 55 -380 0 -380 0 0 340 0 340
390 0 390 0 0 60 0 60 -445 0 c-347 0 -447 -3 -450 -12z"/>
<path d="M7103 3260 c11 -42 660 -1905 666 -1912 7 -8 681 1896 681 1921 0 8
-17 11 -56 9 l-56 -3 -277 -797 c-152 -438 -279 -799 -282 -802 -3 -3 -131
355 -285 796 l-279 803 -59 3 c-55 3 -58 2 -53 -18z"/>
<path d="M9360 2335 l0 -945 450 0 450 0 0 55 0 55 -390 0 -390 0 0 435 0 435
380 0 380 0 0 55 0 55 -380 0 -380 0 0 340 0 340 390 0 391 0 -3 58 -3 57
-447 3 -448 2 0 -945z"/>
<path d="M11315 3269 c-3 -8 -4 -432 -3 -944 l3 -930 58 -3 57 -3 0 446 0 446
35 -3 c34 -3 43 -15 339 -443 l303 -440 66 -3 c37 -2 67 1 66 5 0 4 -136 204
-303 443 l-302 435 35 7 c20 3 66 11 104 16 76 12 177 55 237 103 156 125 204
402 106 615 -52 113 -174 208 -307 238 -37 9 -152 18 -276 22 -177 6 -213 5
-218 -7z m510 -138 c81 -32 164 -115 194 -197 77 -204 -3 -416 -189 -503 -51
-24 -67 -26 -227 -29 l-173 -4 0 382 0 382 168 -4 c144 -4 175 -8 227 -27z"/>
<path d="M13220 2335 l0 -945 450 0 450 0 0 55 0 55 -390 0 -390 0 0 435 0
435 380 0 380 0 0 55 0 55 -380 0 -380 0 0 340 0 340 390 0 390 0 0 60 0 60
-450 0 -450 0 0 -945z"/>
<path d="M193 555 c-45 -19 -75 -70 -69 -115 9 -58 47 -83 167 -109 57 -12
114 -29 126 -37 23 -14 29 -46 17 -79 -16 -41 -113 -58 -177 -31 -38 15 -84
66 -93 102 -4 15 -13 24 -25 24 -17 0 -19 -8 -19 -85 0 -67 3 -85 14 -85 8 0
22 10 30 21 l15 21 52 -26 c93 -46 206 -25 249 46 24 39 25 69 5 108 -20 38
-53 55 -150 74 -120 25 -145 35 -156 63 -19 50 24 86 106 86 70 0 112 -24 136
-79 31 -70 49 -59 49 31 0 59 -3 75 -15 75 -7 0 -18 -7 -23 -15 -7 -14 -13
-13 -53 4 -52 24 -139 27 -186 6z"/>
<path d="M12715 555 c-22 -8 -56 -32 -76 -54 -107 -119 -61 -313 84 -356 68
-20 106 -19 173 6 52 20 58 20 66 5 5 -9 18 -16 28 -16 18 0 20 7 20 90 l0 90
35 0 c29 0 35 4 35 20 0 20 -5 21 -112 18 -93 -2 -113 -6 -113 -18 0 -10 13
-16 42 -18 36 -3 44 -7 49 -27 16 -64 -35 -116 -119 -123 -104 -8 -168 46
-175 150 -6 81 4 123 39 163 36 40 92 59 146 49 42 -8 108 -64 117 -99 4 -16
13 -25 26 -25 18 0 20 7 20 75 0 59 -3 75 -15 75 -8 0 -19 -9 -25 -20 -10 -19
-11 -19 -57 5 -53 29 -124 32 -188 10z"/>
<path d="M1120 545 c0 -9 9 -15 23 -15 13 0 31 -6 40 -13 16 -11 17 -30 15
-172 l-3 -159 -37 -9 c-22 -5 -38 -15 -38 -23 0 -11 21 -14 100 -14 79 0 100
3 100 14 0 8 -16 18 -37 23 l-38 9 -2 164 -3 165 82 -187 c45 -104 87 -188 93
-188 7 0 45 73 85 163 40 89 76 169 81 177 5 9 9 -51 9 -141 l0 -156 -40 -7
c-26 -4 -40 -11 -40 -21 0 -12 19 -15 110 -15 88 0 110 3 110 14 0 8 -16 18
-37 23 l-38 9 -3 159 c-2 142 -1 161 15 172 9 7 27 13 40 13 14 0 23 6 23 15
0 12 -15 15 -77 15 l-78 0 -70 -156 c-38 -86 -73 -158 -76 -160 -3 -2 -37 68
-74 156 l-68 160 -84 0 c-67 0 -83 -3 -83 -15z"/>
<path d="M2491 383 c-41 -98 -78 -183 -83 -189 -5 -7 -22 -14 -38 -18 -18 -3
-30 -12 -30 -21 0 -12 17 -15 100 -15 79 0 100 3 100 14 0 9 -15 17 -40 21
-45 8 -46 10 -24 65 l16 40 90 0 89 0 15 -35 c21 -51 18 -62 -21 -69 -21 -4
-35 -13 -35 -21 0 -12 20 -15 105 -15 88 0 105 3 105 15 0 9 -8 18 -17 21 -41
13 -51 29 -124 200 -72 170 -77 179 -105 182 -29 3 -30 1 -103 -175z m128 20
c17 -43 31 -81 31 -85 0 -5 -32 -8 -71 -8 -39 0 -69 4 -67 8 2 5 16 43 33 85
16 42 33 77 36 77 4 0 21 -35 38 -77z"/>
<path d="M3440 545 c0 -9 9 -15 23 -15 13 0 31 -6 40 -13 16 -11 17 -30 15
-172 l-3 -159 -37 -9 c-22 -5 -38 -15 -38 -23 0 -11 22 -14 110 -14 91 0 110
3 110 15 0 10 -14 17 -40 21 l-40 7 0 78 0 79 69 0 c98 0 120 -20 130 -114 8
-74 24 -96 69 -96 38 0 60 18 72 58 13 50 13 52 -10 52 -16 0 -20 -7 -20 -30
0 -18 -6 -33 -15 -37 -23 -8 -26 -2 -32 63 -7 73 -17 92 -54 108 l-30 13 40
12 c47 14 71 43 71 87 0 81 -62 104 -285 104 -122 0 -145 -2 -145 -15z m299
-24 c25 -5 51 -17 58 -27 19 -26 16 -68 -6 -88 -18 -17 -112 -35 -178 -36
l-33 0 0 80 0 80 58 0 c31 -1 77 -5 101 -9z"/>
<path d="M4530 480 c0 -61 3 -80 14 -80 8 0 18 18 24 43 15 56 39 78 93 80
l44 2 0 -170 0 -170 -48 -9 c-83 -16 -49 -31 81 -34 102 -2 122 0 122 12 0 10
-15 17 -45 22 l-45 6 0 175 0 176 41 -7 c73 -12 99 -39 99 -102 0 -17 5 -24
20 -24 18 0 20 7 20 80 l0 80 -210 0 -210 0 0 -80z"/>
<path d="M6300 545 c0 -9 9 -15 23 -15 13 0 31 -6 40 -13 16 -11 17 -30 15
-172 l-3 -159 -37 -9 c-22 -5 -38 -15 -38 -23 0 -11 22 -14 110 -14 91 0 110
3 110 15 0 10 -14 17 -40 21 l-40 7 0 78 0 79 125 0 126 0 -3 -77 -3 -78 -42
-9 c-25 -5 -43 -15 -43 -22 0 -11 25 -14 115 -14 92 0 115 3 115 14 0 8 -16
18 -37 23 l-38 9 -3 167 -2 167 40 6 c24 4 40 12 40 20 0 11 -24 14 -115 14
-96 0 -115 -3 -115 -15 0 -9 10 -15 26 -15 54 0 64 -15 64 -90 l0 -70 -125 0
-125 0 0 75 0 75 40 6 c24 4 40 12 40 20 0 11 -23 14 -110 14 -91 0 -110 -3
-110 -15z"/>
<path d="M7450 545 c0 -9 9 -15 23 -15 13 0 31 -6 40 -13 16 -11 17 -30 15
-172 l-3 -159 -37 -9 c-22 -5 -38 -15 -38 -23 0 -12 37 -14 215 -14 l215 0 0
85 c0 67 -3 85 -14 85 -10 0 -17 -15 -21 -44 -11 -71 -33 -84 -153 -92 l-102
-7 0 86 0 87 50 0 c54 0 70 -15 70 -65 0 -20 4 -26 18 -23 15 3 17 17 20 106
3 97 2 102 -18 102 -15 0 -20 -7 -20 -28 0 -40 -17 -52 -72 -52 l-48 0 0 75 0
75 73 0 c88 -1 147 -13 164 -35 6 -9 15 -34 18 -56 4 -24 12 -39 21 -39 11 0
14 18 14 80 l0 80 -215 0 c-184 0 -215 -2 -215 -15z"/>
<path d="M8540 545 c0 -9 9 -15 23 -15 13 0 31 -6 40 -13 16 -11 17 -30 15
-172 l-3 -159 -37 -9 c-22 -5 -38 -15 -38 -23 0 -11 22 -14 110 -14 88 0 110
3 110 14 0 8 -16 18 -37 23 l-38 9 -3 77 -3 77 70 0 c98 0 120 -20 130 -114 8
-75 24 -96 72 -96 38 0 67 28 75 72 5 31 3 38 -10 38 -9 0 -19 -13 -24 -33
-14 -55 -35 -39 -48 37 -12 71 -35 105 -73 107 -9 0 2 7 23 15 60 22 76 41 76
89 0 83 -56 104 -282 105 -125 0 -148 -2 -148 -15z m299 -24 c25 -5 51 -17 58
-27 19 -26 16 -68 -6 -88 -18 -17 -112 -35 -178 -36 l-33 0 0 80 0 80 58 0
c31 -1 77 -5 101 -9z"/>
<path d="M9650 545 c0 -10 10 -15 29 -15 55 0 61 -17 61 -168 0 -174 -2 -178
-51 -186 -25 -4 -39 -12 -39 -21 0 -12 20 -15 115 -15 95 0 115 3 115 15 0 10
-14 17 -40 21 l-40 7 0 167 c0 181 0 180 56 180 15 0 24 6 24 15 0 12 -19 15
-115 15 -96 0 -115 -3 -115 -15z"/>
<path d="M10510 480 c0 -62 3 -80 14 -80 9 0 17 15 21 39 3 21 15 48 25 59 20
21 91 39 110 27 11 -7 15 -301 4 -329 -3 -9 -24 -18 -50 -22 -28 -4 -44 -11
-44 -20 0 -11 25 -14 125 -14 102 0 125 3 125 14 0 10 -16 17 -45 22 l-45 6 0
174 c0 194 -4 185 73 163 30 -8 42 -18 53 -44 8 -19 14 -44 14 -55 0 -13 7
-20 20 -20 18 0 20 7 20 80 l0 80 -210 0 -210 0 0 -80z"/>
<path d="M11699 513 c-11 -27 -43 -102 -71 -168 -62 -149 -70 -162 -108 -170
-62 -14 -25 -30 73 -33 81 -2 97 0 97 12 0 9 -14 18 -35 22 -19 3 -37 9 -39
13 -3 4 4 26 14 49 l19 42 89 0 88 0 13 -37 c8 -21 16 -43 18 -50 3 -6 -12
-14 -36 -18 -25 -4 -41 -12 -41 -21 0 -11 22 -14 110 -14 90 0 110 3 110 15 0
8 -14 18 -32 23 -32 7 -37 16 -113 195 -76 179 -81 187 -108 187 -24 0 -31 -7
-48 -47z m70 -103 c17 -41 31 -80 31 -87 0 -9 -19 -13 -65 -13 -45 0 -65 4
-65 13 0 14 61 169 65 165 1 -2 17 -37 34 -78z"/>
<path d="M13690 545 c0 -9 9 -15 24 -15 50 0 56 -19 56 -178 0 -81 -4 -152 -8
-158 -4 -6 -22 -15 -39 -19 -19 -3 -33 -13 -33 -21 0 -12 36 -14 215 -14 l215
0 0 85 c0 78 -2 85 -20 85 -17 0 -20 -7 -20 -39 0 -74 -47 -99 -192 -100 l-58
-1 0 85 0 85 39 0 c58 0 70 -8 77 -51 4 -23 12 -39 20 -39 11 0 14 23 14 105
0 87 -3 105 -15 105 -8 0 -15 -9 -15 -21 0 -44 -18 -59 -70 -59 l-50 0 0 76 0
77 101 -5 c115 -6 137 -18 148 -85 4 -25 12 -39 24 -41 15 -3 17 6 17 77 l0
81 -215 0 c-184 0 -215 -2 -215 -15z"/>
</g>
</svg>
